<svg width="40" height="40" viewBox="0 0 40 40" fill="none" xmlns="http://www.w3.org/2000/svg">
<path d="M22.0737 11.8854L21.5226 11.3768L21.5226 11.3768L22.0737 11.8854ZM23.5874 10.4389L23.204 9.79432L23.204 9.79433L23.5874 10.4389ZM26.6904 10.3923L27.0545 9.73661L27.0544 9.73659L26.6904 10.3923ZM29.6159 13.3809L28.9537 13.7331L28.9538 13.7332L29.6159 13.3809ZM29.5703 16.5507L28.9187 16.1793L28.9187 16.1793L29.5703 16.5507ZM28.1543 18.097L28.6746 18.6372L28.6746 18.6372L28.1543 18.097ZM18.7506 27.1543L18.2303 26.6141L18.2303 26.6141L18.7506 27.1543ZM15.5681 29.6837L15.2952 28.9851L15.2952 28.9851L15.5681 29.6837ZM11.5454 29.9686L11.565 29.2189H11.5649L11.5454 29.9686ZM11.2654 29.9613L11.2458 30.711L11.2458 30.711L11.2654 29.9613ZM10.1436 29.73L10.7064 29.2342L10.7062 29.2341L10.1436 29.73ZM10.0361 28.5662L9.28835 28.5079L9.28835 28.5079L10.0361 28.5662ZM10.0631 28.2197L10.8108 28.278L10.8108 28.278L10.0631 28.2197ZM10.6237 24.7182L11.3116 25.0171L11.3116 25.0171L10.6237 24.7182ZM12.7894 21.9445L12.2383 21.4358L12.2383 21.4358L12.7894 21.9445ZM22 29.25C21.5858 29.25 21.25 29.5858 21.25 30C21.25 30.4142 21.5858 30.75 22 30.75V29.25ZM30 30.75C30.4142 30.75 30.75 30.4142 30.75 30C30.75 29.5858 30.4142 29.25 30 29.25V30.75ZM22.6248 12.3941C23.4069 11.5468 23.6924 11.2491 23.9708 11.0835L23.204 9.79433C22.6906 10.0997 22.2309 10.6094 21.5226 11.3768L22.6248 12.3941ZM23.9708 11.0835C24.6968 10.6517 25.5886 10.6385 26.3264 11.048L27.0544 9.73659C25.8496 9.06773 24.3886 9.08979 23.204 9.79432L23.9708 11.0835ZM26.3263 11.048C26.6091 11.205 26.9028 11.4938 27.7091 12.3174L28.781 11.2681C28.051 10.5224 27.5767 10.0266 27.0545 9.73661L26.3263 11.048ZM27.7091 12.3174C28.5143 13.14 28.7985 13.4413 28.9537 13.7331L30.2781 13.0288C29.9959 12.4982 29.5119 12.0148 28.781 11.2681L27.7091 12.3174ZM28.9538 13.7332C29.361 14.4985 29.3475 15.427 28.9187 16.1793L30.2219 16.9221C30.9055 15.7226 30.9267 14.2478 30.278 13.0286L28.9538 13.7332ZM28.9187 16.1793C28.7552 16.4662 28.4626 16.7588 27.634 17.5568L28.6746 18.6372C29.4266 17.9128 29.9244 17.4441 30.2219 16.9221L28.9187 16.1793ZM27.634 17.5568L18.2303 26.6141L19.2709 27.6945L28.6746 18.6372L27.634 17.5568ZM18.2303 26.6141C16.6878 28.0999 16.059 28.6868 15.2952 28.9851L15.8409 30.3823C16.949 29.9496 17.818 29.0939 19.2709 27.6945L18.2303 26.6141ZM15.2952 28.9851C14.5331 29.2828 13.6847 29.2743 11.565 29.2189L11.5258 30.7183C13.5217 30.7705 14.7312 30.8158 15.8409 30.3823L15.2952 28.9851ZM11.5649 29.2189L11.2849 29.2116L11.2458 30.711L11.5258 30.7183L11.5649 29.2189ZM11.285 29.2116C11.1255 29.2074 10.9991 29.204 10.8907 29.1983C10.7817 29.1926 10.7103 29.1854 10.6613 29.1772C10.5691 29.1619 10.638 29.1567 10.7064 29.2342L9.5808 30.2258C9.83123 30.51 10.1478 30.6123 10.4144 30.6568C10.6576 30.6974 10.9548 30.7034 11.2458 30.711L11.285 29.2116ZM10.7062 29.2341C10.7724 29.3092 10.7575 29.3715 10.7517 29.2682C10.7449 29.1448 10.7573 28.9648 10.7838 28.6245L9.28835 28.5079C9.26514 28.8057 9.24028 29.1043 9.25407 29.3517C9.26897 29.6191 9.33267 29.9442 9.58094 30.2259L10.7062 29.2341ZM10.7838 28.6245L10.8108 28.278L9.31535 28.1614L9.28835 28.5079L10.7838 28.6245ZM10.8108 28.278C10.9547 26.4313 11.0225 25.6824 11.3116 25.0171L9.93583 24.4193C9.5234 25.3686 9.45135 26.4157 9.31535 28.1614L10.8108 28.278ZM11.3116 25.0171C11.6001 24.353 12.0964 23.8012 13.3406 22.4532L12.2383 21.4358C11.0624 22.7098 10.3488 23.4688 9.93582 24.4193L11.3116 25.0171ZM13.3406 22.4532L22.6248 12.3941L21.5226 11.3768L12.2383 21.4358L13.3406 22.4532ZM20.4697 12.5303L27.4697 19.5303L28.5303 18.4697L21.5303 11.4697L20.4697 12.5303ZM22 30.75H30V29.25H22V30.75Z" fill="#404B5A"/>
</svg>
